<svg width="224" height="62" viewBox="0 0 224 62" fill="none" xmlns="http://www.w3.org/2000/svg">
<rect x="34.1577" y="4.22389" width="37.545" height="57.4218" fill="#2B3241"/>
<path d="M68.4246 43.8178L52.3161 50.292L49.6956 43.8178L64.9563 37.7289L68.4246 43.8178Z" fill="#63352A"/>
<path d="M0.712402 41.6755C4.01905 35.1496 15.5451 37.2301 18.8175 39.3892L21.2998 40.8601C16.598 40.0719 5.61578 41.0753 0.712402 41.6755Z" fill="url(#paint0_linear_14_164)"/>
<path d="M70.023 46.6493C65.0731 39.5417 50.5874 45.3277 53.4598 52.4242C49.5769 49.7461 47.9805 47.6358 44.1081 47.5331C30.7401 47.1787 22.0321 40.9922 16.1133 38.1898C23.9555 40.9906 30.0522 40.1633 39.3998 32.9484C47.6421 26.5866 39.3998 23.479 34.2384 22.7455C43.0008 22.4254 41.0803 27.0267 53.1227 27.8184C70.2227 28.0566 72.9627 13.2823 76.5387 0.176758C78.3998 7.13998 82.1179 27.8184 72.3711 36.6225C68.5937 40.0346 69.1557 44.6397 70.023 46.6493Z" fill="#EE6C4D"/>
<path d="M32.5697 37.3851C26.7034 40.3471 21.8803 40.2496 16.1132 38.1899C17.2128 38.7105 18.4087 39.3479 19.7128 40.0431C25.4284 43.0896 33.2235 47.2445 44.108 47.5332C47.0553 47.6113 48.6842 48.8524 51.0062 50.6218C51.735 51.1771 52.5321 51.7845 53.4597 52.4242C50.5873 45.3277 65.073 39.5417 70.0229 46.6493C69.1556 44.6397 68.5936 40.0346 72.371 36.6225C82.103 27.8318 78.411 7.20297 76.5472 0.208694C77.0948 35.5127 52.0562 40.8633 32.5697 37.3851Z" fill="url(#paint1_linear_14_164)"/>
<path d="M26.2471 39.4933C22.9158 39.9919 19.6967 39.4697 16.1132 38.1898C17.2128 38.7105 18.4087 39.3479 19.7128 40.043C25.4284 43.0896 33.2235 47.2445 44.108 47.5331C47.0553 47.6113 48.6842 48.8524 51.0062 50.6217C51.735 51.1771 52.5321 51.7844 53.4597 52.4242C50.5873 45.3277 65.073 39.5417 70.0229 46.6493C69.1556 44.6397 68.5936 40.0346 72.371 36.6225C82.1178 27.8184 78.3997 7.13998 76.5387 0.176758C76.5319 0.201615 76.5251 0.226479 76.5183 0.251349C82.2865 46.832 46.4544 46.8743 26.2471 39.4933Z" fill="url(#paint2_linear_14_164)"/>
<path d="M76.997 2.02797C82.5839 37.9749 54.9185 41.3902 40.1548 32.3358C47.1073 26.3863 39.2313 23.4551 34.2383 22.7455C38.4729 22.5908 40.2125 23.5855 42.2389 24.7442C44.4055 25.983 46.8999 27.4093 53.1226 27.8184C69.1076 28.041 72.5443 15.1451 75.8456 2.75697C76.0759 1.89289 76.3055 1.03128 76.5387 0.176758C76.6827 0.71564 76.8378 1.33667 76.997 2.02797Z" fill="url(#paint3_linear_14_164)" fill-opacity="0.5"/>
<path d="M76.5145 0.26535C75.8445 36.2698 52.4086 33.5535 39.2412 23.3077C40.3753 23.6786 41.2746 24.1928 42.2389 24.7442C44.4055 25.983 46.8999 27.4093 53.1226 27.8184C69.1076 28.041 72.5443 15.1451 75.8456 2.75698C76.0679 1.92274 76.2896 1.09082 76.5145 0.26535Z" fill="url(#paint4_linear_14_164)" fill-opacity="0.6"/>
<path d="M47.1176 48.1353C48.456 48.6788 49.6047 49.5541 51.0059 50.6217C51.7347 51.1771 52.5318 51.7844 53.4594 52.4242C50.587 45.3277 65.0727 39.5417 70.0226 46.6493C69.1553 44.6397 68.5933 40.0346 72.3707 36.6225C82.1175 27.8184 78.3993 7.13998 76.5383 0.176758C76.3052 1.03128 76.0756 1.89289 75.8453 2.75697C72.5439 15.1451 69.1073 28.041 53.1223 27.8184C51.0442 27.6818 49.3819 27.4317 48.0088 27.1131C45.2882 32.4636 44.1725 38.9543 47.1176 48.1353Z" fill="url(#paint5_linear_14_164)" fill-opacity="0.25"/>
<path d="M53.4597 52.4242C50.5874 45.3277 65.073 39.5417 70.0229 46.6493C69.4775 45.3854 69.0527 43.0949 69.7524 40.7201C60.3023 33.3936 51.1662 30.1723 42.7963 28.7732C42.4907 29.9707 41.4604 31.3578 39.3997 32.9484C30.0521 40.1633 23.9554 40.9906 16.1132 38.1899C17.2128 38.7105 18.4087 39.3479 19.7128 40.0431C25.4284 43.0896 33.2235 47.2445 44.108 47.5332C47.0553 47.6113 48.6842 48.8524 51.0062 50.6218C51.735 51.1771 52.5321 51.7844 53.4597 52.4242Z" fill="url(#paint6_linear_14_164)" fill-opacity="0.15"/>
<path d="M92.1204 26.6784H97.2322L101.986 37.1322L106.74 26.6784H111.852V44.5955H107.712L107.686 33.2471L103.52 42.8063H100.453L96.2865 33.2471V44.5955H92.1204V26.6784Z" fill="#EE6C4D"/>
<path d="M121.57 30.589C125.378 30.589 127.602 32.4293 127.627 35.5986V44.5955H123.154V43.0363C122.26 44.1865 120.854 44.7999 118.988 44.7999C116.023 44.7999 114.26 43.0108 114.26 40.4804C114.26 37.8478 116.126 36.3398 119.551 36.2887H123.154V36.1353C123.154 34.8318 122.26 34.065 120.522 34.065C119.372 34.065 117.864 34.4484 116.381 35.1641L115.129 32.097C117.301 31.1257 119.295 30.589 121.57 30.589ZM120.394 41.7073C121.749 41.7073 122.873 40.966 123.154 39.9181V38.7168H120.445C119.167 38.7168 118.528 39.1769 118.528 40.1481C118.528 41.0938 119.218 41.7073 120.394 41.7073Z" fill="#EE6C4D"/>
<path d="M139.809 30.589C142.825 30.589 144.818 32.6337 144.818 35.8798V44.5955H140.294V37.1833C140.294 35.6242 139.374 34.6529 137.943 34.6529C136.409 34.6785 135.412 35.7264 135.233 37.2855V44.5955H130.684V30.7679H135.233V33.0171C136.205 31.4324 137.789 30.589 139.809 30.589Z" fill="#EE6C4D"/>
<path d="M156.034 40.6593L156.903 43.8798C155.906 44.4677 154.526 44.7999 153.172 44.7999C150.488 44.8255 148.545 43.2408 148.545 40.3782V34.4484H146.628V31.4324H148.545V27.5986H153.069V31.4324H156.648V34.4484H153.069V39.6625C153.069 40.6849 153.529 41.145 154.322 41.1194C154.782 41.1194 155.37 40.9405 156.034 40.6593Z" fill="#EE6C4D"/>
<path d="M165.3 30.589C169.108 30.589 171.332 32.4293 171.358 35.5986V44.5955H166.885V43.0363C165.99 44.1865 164.584 44.7999 162.719 44.7999C159.754 44.7999 157.99 43.0108 157.99 40.4804C157.99 37.8478 159.856 36.3398 163.281 36.2887H166.885V36.1353C166.885 34.8318 165.99 34.065 164.252 34.065C163.102 34.065 161.594 34.4484 160.112 35.1641L158.859 32.097C161.032 31.1257 163.025 30.589 165.3 30.589ZM164.124 41.7073C165.479 41.7073 166.604 40.966 166.885 39.9181V38.7168H164.175C162.898 38.7168 162.259 39.1769 162.259 40.1481C162.259 41.0938 162.949 41.7073 164.124 41.7073Z" fill="#EE6C4D"/>
<path d="M186.793 44.5955L185.656 41.658H178.478L177.317 44.5955H172.864L179.994 27.9894H184.448L191.412 44.5955H186.793ZM179.781 38.3415H184.377L182.103 32.4193L179.781 38.3415Z" fill="#2B3241"/>
<path d="M201.017 31.6375C204.594 31.6375 206.986 34.267 206.986 38.2468C206.986 42.1555 204.665 44.7376 201.112 44.7376C199.477 44.7376 198.15 44.098 197.25 42.9372V49.1911H193.034V31.7797H197.25V33.4379C198.15 32.2771 199.43 31.6375 201.017 31.6375ZM199.975 41.3264C201.633 41.3264 202.746 40.0472 202.746 38.152C202.746 36.2569 201.633 34.954 199.975 34.954C198.364 34.954 197.25 36.2569 197.25 38.152C197.25 40.0472 198.364 41.3264 199.975 41.3264Z" fill="#2B3241"/>
<path d="M217.257 31.6375C220.834 31.6375 223.226 34.267 223.226 38.2468C223.226 42.1555 220.905 44.7376 217.352 44.7376C215.717 44.7376 214.39 44.098 213.49 42.9372V49.1911H209.274V31.7797H213.49V33.4379C214.39 32.2771 215.67 31.6375 217.257 31.6375ZM216.214 41.3264C217.873 41.3264 218.986 40.0472 218.986 38.152C218.986 36.2569 217.873 34.954 216.214 34.954C214.604 34.954 213.49 36.2569 213.49 38.152C213.49 40.0472 214.604 41.3264 216.214 41.3264Z" fill="#2B3241"/>
<defs>
<linearGradient id="paint0_linear_14_164" x1="52.9633" y1="41.5246" x2="-0.687385" y2="44.4899" gradientUnits="userSpaceOnUse">
<stop stop-color="#503028"/>
<stop offset="1" stop-color="#B74F37"/>
</linearGradient>
<linearGradient id="paint1_linear_14_164" x1="59.8803" y1="2.50183" x2="2.4462" y2="43.4192" gradientUnits="userSpaceOnUse">
<stop offset="0.397991" stop-color="white" stop-opacity="0"/>
<stop offset="1" stop-color="#FDC36D"/>
</linearGradient>
<linearGradient id="paint2_linear_14_164" x1="87.8785" y1="4.5843" x2="18.0991" y2="44.8974" gradientUnits="userSpaceOnUse">
<stop offset="0.709576" stop-color="white" stop-opacity="0"/>
<stop offset="1" stop-color="#FC9468"/>
</linearGradient>
<linearGradient id="paint3_linear_14_164" x1="70.2709" y1="1.32885" x2="61.6641" y2="30.3644" gradientUnits="userSpaceOnUse">
<stop stop-color="#F5A693"/>
<stop offset="1" stop-color="white" stop-opacity="0"/>
</linearGradient>
<linearGradient id="paint4_linear_14_164" x1="76.5145" y1="-2.2285" x2="47.0103" y2="23.4435" gradientUnits="userSpaceOnUse">
<stop stop-color="#FFAE8C"/>
<stop offset="1" stop-color="white" stop-opacity="0"/>
</linearGradient>
<linearGradient id="paint5_linear_14_164" x1="55.251" y1="42.9605" x2="53.3864" y2="32.1895" gradientUnits="userSpaceOnUse">
<stop stop-color="white"/>
<stop offset="1" stop-color="white" stop-opacity="0"/>
</linearGradient>
<linearGradient id="paint6_linear_14_164" x1="45.6763" y1="40.5987" x2="68.1898" y2="35.5693" gradientUnits="userSpaceOnUse">
<stop stop-color="white"/>
<stop offset="1" stop-color="white" stop-opacity="0"/>
</linearGradient>
</defs>
</svg>
